<?xml version="1.0" standalone="no"?>
<!DOCTYPE svg PUBLIC "-//W3C//DTD SVG 20010904//EN"
 "http://www.w3.org/TR/2001/REC-SVG-20010904/DTD/svg10.dtd">
<svg version="1.0" xmlns="http://www.w3.org/2000/svg"
 width="1080.000000pt" height="1080.000000pt" viewBox="0 0 1080.000000 1080.000000"
 preserveAspectRatio="xMidYMid meet">

<g transform="translate(0.000000,1080.000000) scale(0.100000,-0.100000)"
fill="#000000" stroke="none">
<path d="M3262 9242 l-52 -48 0 -1365 0 -1365 48 -47 c38 -37 55 -47 81 -47
21 0 44 -9 63 -25 l30 -25 221 0 222 0 53 49 52 48 0 1369 0 1369 -49 55 c-48
54 -49 55 -122 63 -41 5 -169 11 -285 13 l-211 5 -51 -49z m635 -54 l43 -42 0
-151 -1 -150 -54 60 -55 60 0 114 c0 92 -3 118 -17 133 -15 17 -15 18 13 18
20 0 41 -12 71 -42z m43 -610 c0 -104 -3 -188 -7 -188 -4 0 -29 21 -55 47
l-48 47 0 201 1 200 54 -60 55 -60 0 -187z m-48 -235 l48 -47 0 -175 0 -175
-55 54 -55 54 0 168 c0 92 3 168 7 168 4 0 29 -21 55 -47z m-2 -419 l50 -47 0
-213 c0 -118 -3 -214 -7 -214 -8 0 -74 76 -90 104 -12 21 -19 416 -8 416 3 0
28 -21 55 -46z m38 -555 c9 -13 12 -66 10 -205 l-3 -187 -52 48 -53 47 0 205
0 206 43 -48 c23 -27 48 -56 55 -66z m12 -647 l0 -175 -52 45 -53 46 -3 177
-2 177 55 -47 55 -47 0 -176z m0 -272 c0 -9 -19 -35 -43 -58 l-43 -42 -96 0
c-54 0 -100 4 -103 10 -4 6 11 10 38 10 38 0 49 6 90 45 45 43 47 47 47 102
l0 57 55 -54 c30 -30 55 -61 55 -70z m-360 -90 c0 -6 -28 -10 -64 -10 -36 0
-68 5 -71 10 -4 6 20 10 64 10 41 0 71 -4 71 -10z"/>
<path d="M4535 9268 c-16 -6 -65 -24 -109 -40 l-78 -30 -54 -112 c-30 -61 -54
-117 -54 -125 0 -8 21 -66 48 -129 45 -109 49 -115 92 -137 57 -29 305 -115
331 -115 11 0 68 16 127 35 122 39 113 30 186 192 l45 101 -51 127 -51 128
-61 27 c-91 41 -186 70 -210 64 -11 -3 -41 2 -65 11 -50 17 -55 17 -96 3z
m341 -109 c36 -22 95 -105 133 -187 l24 -52 -43 -100 c-23 -56 -50 -110 -59
-121 -16 -20 -17 -19 -55 20 l-38 39 37 84 c20 45 39 90 42 99 2 8 -16 62 -41
119 -59 133 -59 136 0 99z m-26 -498 c0 -11 -114 -41 -152 -41 -31 0 -68 15
-58 23 3 2 43 17 90 34 85 31 85 31 103 11 9 -11 17 -23 17 -27z"/>
<path d="M1755 8643 c-88 -19 -180 -39 -205 -44 -88 -18 -174 -76 -367 -245
l-53 -46 0 -68 c0 -66 2 -71 65 -176 73 -122 90 -140 143 -150 20 -4 48 -16
62 -26 14 -10 49 -21 77 -24 48 -6 58 -3 140 41 48 26 102 58 118 70 61 45
136 76 209 85 82 10 121 3 171 -31 28 -19 99 -108 92 -115 -1 -2 -72 -18 -157
-37 -162 -37 -226 -61 -470 -181 -157 -77 -180 -98 -318 -295 -48 -68 -99
-137 -113 -153 -29 -33 -58 -123 -85 -261 -16 -83 -16 -92 1 -165 10 -42 25
-95 35 -117 28 -66 213 -231 280 -249 14 -4 51 -19 83 -32 32 -14 110 -36 175
-50 64 -13 136 -31 160 -40 24 -9 59 -14 80 -12 55 7 338 92 406 122 l59 26
22 -20 c13 -13 35 -20 59 -20 26 0 44 -7 61 -24 23 -23 29 -24 199 -27 l175
-3 50 46 51 47 -5 58 c-3 32 -14 317 -25 633 -11 316 -24 600 -29 631 -15 91
-215 606 -250 641 -9 9 -86 56 -172 106 -168 96 -218 114 -374 132 -133 15
-174 12 -350 -27z m758 -167 c70 -39 114 -70 123 -87 15 -29 114 -269 114
-276 0 -3 -25 17 -56 43 -61 52 -120 144 -154 241 l-22 61 -114 67 c-63 37
-114 70 -114 72 0 5 33 -13 223 -121z m-604 -362 c17 -4 28 -10 25 -15 -9 -15
-81 -10 -94 6 -11 13 -9 15 13 15 13 0 38 -3 56 -6z m-134 -30 c14 -9 22 -20
20 -25 -9 -13 -205 -129 -219 -129 -13 0 -62 47 -55 54 14 13 206 116 217 116
7 0 24 -7 37 -16z m965 -47 c54 -51 71 -76 98 -142 31 -77 32 -85 32 -217 l0
-137 -36 37 c-61 62 -66 75 -75 190 -7 105 -17 138 -83 295 -9 20 -13 37 -9
37 5 0 37 -28 73 -63z m-1243 -109 c34 -32 29 -36 -29 -25 l-51 10 23 19 c28
23 29 23 57 -4z m1392 -698 c4 -124 7 -226 6 -228 -1 -1 -24 17 -50 41 -47 42
-49 46 -56 113 -4 38 -11 146 -14 239 l-7 170 56 -55 56 -56 9 -224z m-642
176 c-3 -8 -33 -23 -68 -35 -59 -20 -63 -20 -75 -3 -20 26 -17 30 24 41 110
30 131 29 119 -3z m-255 -117 c-43 -21 -99 -57 -126 -80 l-48 -43 -29 35 c-16
19 -28 39 -28 44 0 6 59 38 132 71 l132 62 22 -26 22 -26 -77 -37z m271 -77
l6 -142 -37 -16 c-104 -44 -335 -115 -364 -112 -29 3 -33 7 -51 66 l-20 63 30
37 c16 20 35 46 40 57 17 31 108 81 254 141 73 29 134 52 135 51 1 -1 4 -66 7
-145z m-502 -54 c26 -31 26 -34 12 -59 -14 -24 -14 -32 6 -89 11 -35 19 -66
16 -68 -3 -3 -23 0 -45 7 -30 9 -45 22 -64 54 -41 72 -42 101 -6 147 17 22 37
40 43 40 6 0 23 -15 38 -32z m1093 -206 l49 -52 8 -168 c4 -92 5 -169 4 -171
-8 -7 -94 73 -99 93 -12 41 -28 359 -18 354 4 -2 29 -27 56 -56z m16 -427 l44
-45 -34 -35 -34 -35 -117 0 c-68 0 -120 4 -124 10 -4 6 19 10 63 10 l70 0 36
44 c21 26 36 55 36 70 0 14 4 26 8 26 4 0 28 -20 52 -45z m-571 -2 c14 -31 12
-33 -69 -64 -86 -32 -106 -34 -119 -11 -10 18 -3 23 72 60 45 22 87 41 93 41
6 1 16 -11 23 -26z m-244 -93 c10 -11 15 -20 12 -20 -3 0 -47 -11 -98 -25 -65
-17 -105 -22 -136 -18 -62 8 -43 21 84 54 131 34 116 33 138 9z"/>
<path d="M8393 8590 c-268 -42 -264 -40 -412 -150 -44 -33 -86 -60 -91 -60
-17 0 -71 -81 -107 -160 -63 -139 -71 -155 -77 -174 -14 -40 -37 -278 -43
-441 -7 -204 -7 -206 149 -671 l101 -301 101 -37 c55 -21 252 -91 437 -156
l336 -118 203 34 c222 36 242 43 405 145 56 36 95 69 130 114 68 87 122 179
142 241 16 50 15 55 -7 123 -20 63 -30 78 -96 141 l-74 70 -64 0 c-41 0 -67 5
-75 14 -14 16 -103 10 -144 -11 -15 -7 -64 -43 -110 -80 -45 -36 -87 -70 -93
-75 -15 -11 -322 -88 -355 -88 -14 0 -56 13 -92 30 -53 24 -71 38 -91 72 -41
70 -86 185 -80 202 5 14 68 16 578 16 l571 0 60 54 60 53 -1 209 c-1 260 -14
329 -107 564 -40 100 -47 110 -132 195 -139 140 -171 162 -261 185 -82 21
-491 101 -509 99 -5 0 -119 -18 -252 -39z m828 -123 c73 -44 236 -210 264
-267 32 -63 105 -254 105 -273 0 -21 -129 121 -154 170 -13 27 -32 75 -42 108
-16 54 -30 71 -130 173 -108 108 -122 139 -43 89z m-587 -350 l30 -13 -58 -24
c-55 -22 -60 -22 -85 -7 -32 20 -30 29 12 44 42 15 65 15 101 0z m127 -49 c63
-18 136 -124 153 -220 l7 -38 -251 0 c-223 0 -250 2 -250 16 0 22 67 148 89
168 19 18 177 85 200 86 7 0 31 -5 52 -12z m-292 -18 l23 -20 -45 -67 c-26
-38 -52 -87 -59 -110 -12 -39 -16 -43 -44 -43 -20 0 -39 9 -54 25 l-23 25 42
84 c59 120 105 151 160 106z m1122 -212 c28 -51 41 -311 21 -422 l-7 -39 -50
61 -50 61 6 83 c5 73 -2 165 -26 333 l-6 40 51 -50 c28 -27 56 -58 61 -67z
m-52 -462 l32 -33 -34 -22 c-31 -19 -49 -21 -173 -21 -77 0 -146 5 -154 10
-10 7 14 10 78 10 102 0 129 9 176 59 17 17 33 31 36 31 3 0 21 -15 39 -34z
m-859 -66 c0 -6 -65 -11 -162 -12 -160 -3 -162 -3 -168 -26 l-5 -24 -21 24
c-45 49 -48 48 160 48 121 0 196 -4 196 -10z m460 0 c0 -13 -370 -13 -390 0
-10 6 53 10 188 10 128 0 202 -4 202 -10z m-729 -224 c29 -51 37 -86 20 -86
-33 0 -83 35 -105 73 -29 48 -86 184 -86 201 1 19 140 -135 171 -188z m1081
45 c18 -15 44 -34 56 -40 24 -13 97 -151 90 -171 -5 -16 -115 87 -133 125 -9
18 -32 51 -51 74 -32 36 -33 41 -15 41 11 0 35 -13 53 -29z m87 -242 c36 -27
42 -36 36 -58 -7 -26 -81 -152 -113 -190 l-17 -21 -38 36 -38 35 44 69 c24 38
50 90 57 115 7 25 16 45 19 45 4 0 26 -14 50 -31z m-144 -298 c3 -8 0 -18 -7
-23 -7 -4 -55 -35 -107 -68 -52 -33 -102 -60 -111 -60 -10 0 -25 11 -33 24
-16 24 -15 24 61 75 42 28 91 64 107 79 l30 29 27 -21 c15 -12 29 -27 33 -35z
m-291 -160 c8 -13 -4 -16 -170 -41 -141 -22 -184 -22 -184 -2 0 5 53 16 118
26 64 10 135 24 157 30 38 12 67 7 79 -13z"/>
<path d="M5356 8574 l-29 -37 32 -106 c43 -141 161 -508 401 -1246 110 -335
204 -630 210 -655 16 -63 102 -145 160 -153 23 -3 59 -17 81 -31 38 -26 40
-26 236 -26 l197 0 62 41 c34 22 65 48 69 57 29 73 220 636 440 1294 l264 788
-33 42 c-30 41 -34 43 -91 46 -33 2 -64 7 -69 13 -6 5 -101 9 -219 9 l-208 0
-53 -37 -53 -38 -159 -380 c-87 -209 -171 -409 -187 -445 l-29 -65 -25 70
c-90 252 -163 452 -219 600 -60 158 -68 173 -115 217 -35 33 -61 49 -87 53
-20 3 -62 10 -93 15 -30 6 -145 10 -255 10 l-199 0 -29 -36z m620 -51 c34 -22
50 -42 73 -93 40 -89 103 -260 99 -271 -2 -5 -33 19 -69 54 -64 59 -68 67
-108 178 -23 64 -51 126 -62 138 -20 21 -20 21 2 21 12 0 41 -12 65 -27z
m1442 -5 c15 -25 14 -32 -12 -127 -31 -111 -25 -108 -95 -49 l-32 28 21 66
c11 36 20 77 20 91 0 22 3 24 41 21 31 -2 44 -9 57 -30z m-104 -251 l39 -33
-44 -135 c-24 -73 -45 -136 -47 -139 -1 -2 -23 16 -48 41 l-45 45 43 127 c24
70 48 127 53 127 6 0 27 -15 49 -33z m-1093 -302 c20 -44 60 -145 89 -223 l52
-144 -17 -46 c-10 -26 -21 -51 -25 -55 -4 -5 -22 27 -40 70 -31 74 -220 573
-220 581 0 2 28 -20 62 -50 50 -43 69 -68 99 -133z m981 -23 l41 -39 -48 -144
c-26 -79 -51 -147 -54 -151 -4 -5 -26 12 -50 36 l-43 44 48 146 c27 80 52 146
57 146 4 0 26 -17 49 -38z m-96 -398 c4 -17 -79 -307 -93 -323 -7 -10 -83 74
-83 92 0 17 86 291 97 310 7 12 73 -54 79 -79z m-142 -352 l28 -30 -42 -129
c-24 -70 -44 -130 -46 -132 -2 -2 -23 13 -47 33 -43 35 -44 38 -36 75 7 33 36
117 70 209 10 27 28 21 73 -26z m-124 -320 l42 -37 -35 -105 c-19 -58 -40
-118 -46 -134 l-12 -29 -43 42 -43 42 29 92 c15 51 33 109 39 130 5 20 14 37
18 37 5 0 28 -17 51 -38z m-77 -377 c-5 -69 -83 -127 -179 -133 -75 -5 -82 6
-26 42 58 37 82 72 116 170 6 17 10 15 49 -17 32 -27 42 -42 40 -62z m-360
-132 c-29 -2 -77 -2 -105 0 -29 2 -6 3 52 3 58 0 81 -1 53 -3z"/>
<path d="M4317 8442 l-47 -48 0 -963 0 -964 49 -48 c39 -40 55 -49 83 -49 21
0 47 -9 64 -22 27 -22 38 -23 243 -26 l214 -3 54 53 53 52 0 977 0 976 -50 47
c-47 44 -52 46 -109 46 -33 0 -63 5 -66 10 -4 6 -89 10 -223 10 l-218 0 -47
-48z m647 -52 c35 -39 36 -41 36 -126 l0 -85 -27 19 c-16 11 -42 35 -60 54
-28 30 -31 40 -35 106 l-4 72 27 0 c18 0 38 -12 63 -40z m-17 -242 l53 -52 0
-188 c0 -108 -4 -188 -9 -188 -5 0 -32 26 -60 57 l-51 57 0 183 c0 101 3 183
7 183 4 0 31 -23 60 -52z m-16 -445 c71 -75 69 -67 69 -295 0 -115 -4 -208 -9
-208 -4 0 -31 24 -60 54 l-51 55 0 215 c0 119 4 216 8 216 4 0 24 -17 43 -37z
m18 -537 l51 -55 0 -165 c0 -99 -4 -166 -10 -166 -5 0 -32 23 -60 50 l-50 51
0 169 c0 94 4 170 9 170 4 0 31 -24 60 -54z m41 -466 c6 -11 10 -72 10 -137
l0 -119 -34 -33 -34 -33 -28 29 -29 28 3 183 3 183 50 -42 c27 -23 54 -49 59
-59z m-132 -320 c12 -20 10 -20 -175 -18 l-188 2 152 5 c102 4 156 10 165 19
17 17 31 15 46 -8z"/>
<path d="M7577 3980 l-47 -42 0 -1372 0 -1373 43 -47 c38 -40 49 -46 84 -46
27 0 46 -6 58 -20 17 -19 31 -20 249 -20 l232 0 47 48 47 48 0 1370 0 1370
-52 51 c-50 49 -57 52 -118 58 -36 4 -162 9 -281 11 l-215 5 -47 -41z m636
-58 l38 -38 -3 -152 -3 -151 -52 62 -53 62 0 108 c0 60 -5 117 -10 128 -9 17
-7 19 18 19 19 0 39 -12 65 -38z m33 -427 c2 -11 3 -101 2 -200 l-3 -180 -52
54 -53 53 0 202 1 201 50 -55 c27 -30 52 -64 55 -75z m-33 -424 l37 -35 0
-175 0 -175 -55 54 -55 54 0 169 c0 190 -6 181 73 108z m5 -425 l32 -30 0
-220 0 -219 -26 24 c-14 13 -38 44 -55 68 l-29 44 0 200 0 200 23 -19 c12 -10
37 -32 55 -48z m32 -738 c0 -104 -3 -188 -7 -188 -4 0 -29 21 -55 47 l-48 47
0 201 1 200 54 -60 55 -60 0 -187z m0 -451 c0 -94 -4 -167 -9 -165 -5 2 -30
22 -55 46 l-46 42 0 177 0 177 55 -54 55 -54 0 -169z m0 -271 c0 -11 -17 -37
-37 -58 l-37 -38 -106 2 c-58 1 -87 3 -65 5 31 3 50 14 88 51 46 45 47 48 47
106 l0 60 55 -54 c30 -30 55 -63 55 -74z m-382 -93 c-21 -2 -57 -2 -80 0 -24
2 -7 4 37 4 44 0 63 -2 43 -4z"/>
<path d="M806 3609 l-46 -41 0 -1502 0 -1502 48 -47 c38 -37 55 -47 81 -47 21
0 44 -9 63 -25 29 -25 31 -25 227 -25 l197 0 52 48 52 48 0 517 0 517 43 0
c24 0 68 7 98 16 30 8 185 54 344 100 l290 85 60 63 c33 35 116 134 185 221
140 178 138 173 181 430 l22 130 -47 214 c-26 118 -53 223 -61 234 -8 11 -100
109 -204 217 l-189 196 -193 52 c-491 131 -561 142 -900 142 l-256 0 -47 -41z
m1382 -197 c36 -26 366 -371 379 -397 14 -26 45 -166 39 -172 -3 -3 -26 17
-52 43 -45 47 -94 132 -94 165 0 8 -81 99 -180 201 -99 103 -180 189 -180 191
0 10 60 -12 88 -31z m-773 -378 l25 -16 0 -207 -1 -206 -54 58 -55 58 0 164 0
165 30 0 c17 0 42 -7 55 -16z m220 -58 c95 -23 102 -27 144 -73 24 -26 69 -81
99 -121 51 -68 54 -75 49 -115 -10 -71 -78 -271 -100 -295 -23 -24 -150 -102
-207 -126 -19 -8 -59 -18 -88 -24 l-52 -9 0 393 0 394 28 0 c15 0 72 -11 127
-24z m1001 -272 c13 -27 25 -66 26 -85 3 -37 -43 -309 -52 -309 -3 0 -25 20
-49 44 l-44 44 18 119 c17 118 17 121 -4 224 -11 57 -21 109 -21 114 1 20 102
-101 126 -151z m-1247 -125 l51 -61 0 -153 c0 -170 2 -165 -71 -165 l-39 0 0
220 c0 121 2 220 4 220 2 0 27 -27 55 -61z m1170 -294 c22 -24 41 -48 41 -51
0 -10 -78 -112 -124 -162 l-39 -43 -34 33 c-18 17 -33 35 -33 38 0 3 20 30 46
60 50 59 84 119 84 150 0 30 13 25 59 -25z m-191 -268 l40 -34 -74 -96 c-41
-54 -80 -97 -87 -97 -7 0 -26 14 -42 30 -21 22 -27 35 -20 45 15 21 140 184
142 185 0 0 19 -15 41 -33z m-203 -227 c10 -11 16 -21 14 -23 -2 -1 -68 -21
-146 -43 -138 -40 -143 -41 -159 -23 -10 11 -15 21 -13 23 3 4 263 82 280 85
3 1 14 -8 24 -19z m-345 -105 c10 -13 7 -17 -21 -29 -61 -25 -254 -70 -272
-63 -41 15 -12 33 111 69 145 41 165 44 182 23z m-374 -101 c-3 -9 -6 -99 -6
-201 l0 -186 -55 59 -54 59 -1 143 0 142 61 0 c52 0 60 -2 55 -16z m-35 -438
l29 -39 0 -206 0 -205 -55 54 -55 54 0 215 0 214 26 -24 c15 -13 40 -42 55
-63z m29 -571 c-1 -53 -45 -105 -84 -98 -18 4 -28 0 -32 -11 -6 -17 -68 -23
-78 -8 -3 5 15 28 39 52 l45 44 0 85 0 85 55 -54 c49 -48 55 -59 55 -95z
m-280 -115 c0 -6 -33 -10 -79 -10 -44 0 -83 5 -86 10 -4 6 25 10 79 10 51 0
86 -4 86 -10z"/>
<path d="M3740 3366 c-36 -13 -180 -69 -321 -125 -215 -85 -258 -105 -262
-124 -2 -12 -51 -200 -107 -417 -56 -217 -102 -407 -102 -422 1 -65 219 -889
239 -905 47 -37 764 -313 813 -313 35 0 113 28 547 199 l182 72 15 42 c23 61
75 252 160 585 l74 292 -48 188 c-73 280 -180 675 -184 679 -2 3 -141 56 -307
120 -316 120 -394 141 -544 148 -76 4 -100 1 -155 -19z m957 -265 c23 -12 33
-32 33 -63 0 -18 -9 -13 -54 28 -30 27 -54 52 -55 56 -1 8 48 -5 76 -21z m20
-138 c34 -31 46 -52 66 -118 35 -112 119 -446 114 -452 -3 -2 -30 24 -61 58
-48 54 -60 76 -85 153 -26 83 -111 396 -111 411 0 10 32 -12 77 -52z m-797
-112 c5 -11 10 -22 10 -24 0 -3 -31 -17 -68 -31 -90 -35 -110 -50 -118 -91 -3
-19 -9 -35 -13 -35 -3 1 -28 21 -55 45 l-48 45 93 43 c52 24 105 48 119 54 38
18 68 15 80 -6z m161 -53 c30 -12 59 -26 66 -32 6 -6 32 -112 58 -236 36 -173
45 -236 40 -275 -10 -81 -74 -418 -84 -440 -8 -19 -194 -125 -219 -125 -5 0
-45 19 -88 43 -61 34 -80 50 -86 73 -15 54 -78 416 -78 450 0 30 86 454 94
461 8 8 222 103 232 103 6 0 36 -10 65 -22z m-361 -194 c0 -1 -13 -61 -30
-132 -16 -71 -33 -153 -37 -181 l-8 -52 -47 54 -46 54 29 159 c16 87 32 165
34 172 3 9 21 0 55 -29 27 -23 50 -43 50 -45z m1155 -269 l67 -76 -21 -92
c-12 -51 -31 -127 -42 -170 l-21 -77 -48 40 -48 40 35 142 c35 147 35 156 7
251 -3 9 -3 17 -1 17 3 0 35 -34 72 -75z m-1209 -220 c8 -27 26 -113 40 -190
15 -77 30 -148 36 -158 5 -10 24 -27 41 -37 53 -33 22 -23 -63 20 -43 22 -84
48 -89 59 -8 15 -91 434 -91 459 0 4 25 -18 55 -48 41 -41 60 -68 71 -105z
m1130 -216 l41 -40 -32 -129 c-17 -72 -34 -133 -38 -136 -9 -10 -87 59 -87 78
0 15 43 207 56 251 8 24 13 22 60 -24z m-896 -235 c0 -2 -13 2 -30 11 -16 9
-30 18 -30 21 0 2 14 -2 30 -11 17 -9 30 -18 30 -21z m838 -126 c7 -9 6 -33
-5 -83 -17 -79 -40 -107 -102 -126 -35 -10 -42 -9 -66 9 -25 20 -25 21 -5 27
28 9 44 44 70 152 l23 92 37 -29 c20 -16 42 -35 48 -42z m-211 -235 c2 -6 -58
-36 -134 -66 l-138 -55 -17 22 c-10 11 -18 24 -18 27 0 3 60 28 133 56 112 43
135 49 151 39 11 -7 22 -18 23 -23z m-343 -115 c9 -12 12 -25 8 -29 -4 -3 -47
-20 -96 -38 -65 -23 -97 -30 -122 -25 -19 3 -36 10 -39 14 -3 5 28 22 67 38
40 17 89 37 108 45 48 21 57 20 74 -5z"/>
<path d="M5940 3332 c-260 -100 -464 -183 -477 -195 -19 -19 -223 -808 -223
-862 0 -24 114 -484 193 -775 l34 -125 99 -44 c209 -92 688 -271 726 -271 25
0 154 46 379 134 188 74 345 138 349 143 13 13 82 259 169 601 l79 313 -34
136 c-65 250 -193 725 -197 730 -3 2 -142 56 -308 120 -315 119 -392 140 -544
149 l-90 4 -155 -58z m1063 -244 c9 -11 17 -32 17 -46 0 -24 -2 -23 -54 24
-30 27 -54 52 -55 56 -2 14 75 -14 92 -34z m-7 -116 c42 -37 56 -60 73 -110
28 -88 123 -463 118 -469 -3 -2 -30 24 -61 59 -64 71 -77 107 -147 378 -22 85
-43 163 -45 173 -8 27 7 20 62 -31z m-788 -114 c23 -23 11 -37 -56 -62 -90
-35 -110 -50 -118 -91 -3 -19 -9 -35 -13 -35 -3 1 -28 21 -54 45 l-49 45 94
43 c51 23 104 48 118 54 33 15 63 16 78 1z m163 -60 c30 -12 59 -26 66 -32 7
-6 33 -114 59 -240 l46 -230 -17 -105 c-10 -58 -30 -169 -45 -246 l-27 -139
-42 -26 c-23 -15 -73 -42 -111 -60 l-68 -33 -84 45 -83 45 -32 159 c-17 87
-37 198 -44 246 l-13 87 48 223 c26 123 49 224 50 226 8 7 223 102 232 102 6
0 36 -10 65 -22z m-361 -194 c0 -2 -13 -63 -30 -136 -16 -73 -32 -152 -36
-176 -4 -23 -10 -41 -13 -40 -4 2 -25 23 -48 48 l-41 45 30 160 c16 88 31 166
34 173 3 10 20 1 54 -28 28 -23 50 -44 50 -46z m1220 -354 c0 -13 -38 -171
-71 -293 l-10 -37 -48 40 -48 41 34 137 c35 140 36 173 8 257 -4 11 25 -14 64
-55 39 -41 70 -82 71 -90z m-1280 -115 c12 -32 53 -227 65 -309 5 -38 15 -57
38 -79 31 -29 29 -28 -50 11 -45 23 -84 49 -87 59 -6 19 -86 443 -86 454 0 16
110 -109 120 -136z m1136 -236 l41 -40 -30 -127 c-16 -70 -33 -131 -38 -136
-11 -12 -87 54 -88 77 -1 10 10 62 23 115 13 53 27 109 30 125 4 15 9 27 13
27 4 0 26 -18 49 -41z m-891 -229 c3 -6 -1 -7 -9 -4 -18 7 -21 14 -7 14 6 0
13 -4 16 -10z m822 -122 c22 -23 22 -25 7 -93 -18 -79 -41 -107 -103 -126 -35
-10 -42 -9 -66 9 -25 20 -25 21 -4 27 26 9 51 64 75 167 l17 77 26 -19 c14
-10 36 -29 48 -42z m-200 -245 c2 -6 -58 -36 -134 -66 l-138 -55 -17 22 c-10
11 -18 24 -18 27 0 3 60 28 133 56 112 43 135 49 151 39 11 -7 22 -18 23 -23z
m-343 -115 c9 -12 12 -25 8 -29 -4 -3 -47 -20 -96 -38 -65 -23 -97 -30 -122
-25 -19 3 -36 10 -39 14 -3 5 28 22 67 38 40 17 89 37 108 45 48 21 57 20 74
-5z"/>
<path d="M9142 3325 c-175 -33 -241 -50 -265 -67 -18 -12 -96 -71 -174 -130
-158 -122 -155 -117 -199 -290 -16 -66 -24 -116 -20 -139 3 -20 31 -110 62
-199 l57 -162 296 -197 c163 -108 321 -207 351 -221 67 -29 80 -39 80 -56 0
-22 -76 -71 -162 -104 -100 -39 -329 -98 -425 -110 -72 -9 -128 -35 -165 -76
-22 -25 -34 -81 -49 -221 l-11 -112 36 -50 c32 -43 43 -51 82 -57 24 -3 55
-15 68 -25 36 -28 101 -38 296 -45 160 -5 193 -3 380 24 234 33 232 32 452
171 159 99 139 69 238 361 72 210 72 167 -2 410 -22 74 -48 143 -57 154 -22
25 -200 159 -256 191 -25 15 -87 43 -138 62 -102 38 -203 90 -259 135 l-38 30
55 64 c30 36 55 69 55 73 0 27 137 51 332 58 l157 6 48 43 c58 50 68 76 83
227 11 107 10 110 -14 150 -13 23 -32 50 -42 59 -22 19 -137 40 -339 62 -262
29 -259 29 -513 -19z m820 -67 c8 -7 25 -28 37 -46 22 -32 23 -36 12 -147 -16
-163 -16 -162 -74 -110 l-48 44 13 109 c11 99 10 112 -5 136 l-17 26 33 0 c18
0 40 -6 49 -12z m-25 -375 c12 -32 -19 -41 -174 -46 -89 -3 -155 -2 -158 4 -4
5 33 9 87 9 l94 0 44 45 43 44 29 -21 c16 -11 32 -27 35 -35z m-399 -60 c2 -8
-6 -13 -23 -13 -45 0 -93 -30 -141 -86 l-46 -53 -39 31 -38 31 27 33 c15 17
38 37 52 43 65 29 200 38 208 14z m-258 -214 c0 -23 11 -35 65 -70 35 -24 63
-45 60 -47 -10 -11 -235 123 -235 141 0 4 10 21 22 37 l22 30 33 -32 c22 -21
33 -41 33 -59z m455 -265 c77 -46 226 -154 242 -174 13 -16 86 -231 98 -290
l8 -34 -39 32 c-22 18 -47 40 -58 50 -24 22 -61 106 -86 194 -23 83 -28 90
-140 176 -106 81 -106 82 -94 82 5 0 36 -16 69 -36z m312 -546 l33 -34 -42
-127 c-24 -70 -46 -127 -51 -127 -4 0 -26 17 -48 38 l-40 37 42 132 c47 146
45 145 106 81z m-83 -367 c-11 -46 -31 -67 -109 -116 l-77 -48 -26 26 c-25 25
-25 27 -8 46 10 10 30 24 45 31 29 12 60 59 81 122 l11 38 44 -37 c37 -31 43
-41 39 -62z m-257 -165 c15 -13 26 -26 23 -29 -3 -2 -32 -20 -65 -40 -59 -36
-204 -75 -226 -61 -19 11 -8 23 44 47 28 14 81 43 117 65 36 23 68 41 72 42 4
0 20 -11 35 -24z m-340 -132 c4 -13 -31 -20 -198 -36 -186 -17 -198 0 -19 27
156 24 211 26 217 9z m-434 -31 c-7 -2 -19 -2 -25 0 -7 3 -2 5 12 5 14 0 19
-2 13 -5z"/>
<path d="M1440 410 c0 -26 5 -40 13 -40 7 0 31 18 52 40 l39 40 -52 0 -52 0 0
-40z"/>
</g>
</svg>
